# xmcd
#
# Track frame offsets: 
#        150
#        9013
#        21584
#        44523
#        67372
#        90256
#        103438
#        120637
#        138196
#        155422
#
# Disc length: 2379 seconds
#
# Revision: 5
# Processed by: cddbd v1.5.2PL0 Copyright (c) Steve Scherf et al.
# Submitted via: ExactAudioCopyFreeDBPlugin 1.0
#
DISCID=8309490a
DTITLE=The Graham Bond Organization - I Met The Blues At Klook's Kleek
DYEAR=2007
DGENRE=Blues
TTITLE0=Band Introduction by Dick Jordan
TTITLE1=Wade in the Water
TTITLE2=Big Boss Man
TTITLE3=Person to Person Blues
TTITLE4=First time I met the Blues
TTITLE5=Spanish Blues
TTITLE6=Stormy Monday
TTITLE7=Train Time
TTITLE8=Early in the Morning
TTITLE9=What'd I say
EXTD=re-released on CD in 2007
EXTT0=
EXTT1=
EXTT2=
EXTT3=
EXTT4=
EXTT5=
EXTT6=
EXTT7=
EXTT8=
EXTT9=
PLAYORDER=
